<?xml version="1.0" encoding="UTF-8"?>
<svg xmlns="http://www.w3.org/2000/svg" viewBox="0 0 24 24" width="24" height="24">
  <defs>
    <linearGradient id="cloudGradient" x1="0%" y1="0%" x2="0%" y2="100%">
      <stop offset="0%" stop-color="#ffffff" />
      <stop offset="100%" stop-color="#e0e0e0" />
    </linearGradient>
    
    <linearGradient id="cpuGradient" x1="0%" y1="0%" x2="100%" y2="100%">
      <stop offset="0%" stop-color="#4dabf7" />
      <stop offset="100%" stop-color="#228be6" />
    </linearGradient>
    
    <filter id="shadow" x="-20%" y="-20%" width="140%" height="140%">
      <feDropShadow dx="1" dy="1" stdDeviation="1" flood-color="rgba(0,0,0,0.2)" />
    </filter>
  </defs>
  
  <path 
    d="M19.35 10.04A7.49 7.49 0 0 0 12 4C9.11 4 6.6 5.64 5.35 8.04A5.994 5.994 0 0 0 0 14c0 3.31 2.69 6 6 6h13c2.76 0 5-2.24 5-5 0-2.64-2.05-4.78-4.65-4.96z"
    fill="url(#cloudGradient)"
    filter="url(#shadow)"
  />
  
  <g transform="translate(7, 8)">
    <rect x="0" y="0" width="10" height="10" rx="1" fill="url(#cpuGradient)" />
    <line x1="0" y1="2.5" x2="10" y2="2.5" stroke="#ffffff" stroke-width="0.7" />
    <line x1="0" y1="5" x2="10" y2="5" stroke="#ffffff" stroke-width="0.7" />
    <line x1="0" y1="7.5" x2="10" y2="7.5" stroke="#ffffff" stroke-width="0.7" />
    <line x1="2.5" y1="0" x2="2.5" y2="10" stroke="#ffffff" stroke-width="0.7" />
    <line x1="5" y1="0" x2="5" y2="10" stroke="#ffffff" stroke-width="0.7" />
    <line x1="7.5" y1="0" x2="7.5" y2="10" stroke="#ffffff" stroke-width="0.7" />
    <rect x="-0.8" y="1.5" width="0.8" height="1" rx="0.2" fill="#339af0" />
    <rect x="10" y="1.5" width="0.8" height="1" rx="0.2" fill="#339af0" />
    <rect x="-0.8" y="4" width="0.8" height="1" rx="0.2" fill="#339af0" />
    <rect x="10" y="4" width="0.8" height="1" rx="0.2" fill="#339af0" />
    <rect x="-0.8" y="6.5" width="0.8" height="1" rx="0.2" fill="#339af0" />
    <rect x="10" y="6.5" width="0.8" height="1" rx="0.2" fill="#339af0" />
    
    <rect x="1.5" y="-0.8" width="1" height="0.8" rx="0.2" fill="#339af0" />
    <rect x="4" y="-0.8" width="1" height="0.8" rx="0.2" fill="#339af0" />
    <rect x="6.5" y="-0.8" width="1" height="0.8" rx="0.2" fill="#339af0" />
    <rect x="1.5" y="10" width="1" height="0.8" rx="0.2" fill="#339af0" />
    <rect x="4" y="10" width="1" height="0.8" rx="0.2" fill="#339af0" />
    <rect x="6.5" y="10" width="1" height="0.8" rx="0.2" fill="#339af0" />
  </g>
  <path 
    d="M19.35 10.04A7.49 7.49 0 0 0 12 4C9.11 4 6.6 5.64 5.35 8.04A5.994 5.994 0 0 0 0 14c0 3.31 2.69 6 6 6h13c2.76 0 5-2.24 5-5 0-2.64-2.05-4.78-4.65-4.96z"
    fill="none"
    stroke="#808080"
    stroke-width="0.5"
  />
</svg>