<svg xmlns="http://www.w3.org/2000/svg" width="100pt" height="100pt" version="1.1" viewBox="0 0 100 100">
 <path d="m86.371 35.938v29.113c0 0.61328-0.49609 1.1094-1.1094 1.1094h-2.3789c-0.40625 0-0.77734-0.22266-0.97266-0.57812-0.90234-1.293-2.5391-1.8438-4.0391-1.3633s-2.5078 1.8828-2.4883 3.457c0.019532 1.5781 1.0664 2.9531 2.5781 3.3984 1.5117 0.44141 3.1328-0.15234 4-1.4688 0.20312-0.3125 0.55078-0.5 0.92187-0.5h2.3789c0.61328 0 1.1094 0.49609 1.1094 1.1055v12.277c-0.003906 2.1445-1.7383 3.8789-3.8828 3.8828h-11.168v0.71875c1.8945 1.5586 2.6055 4.1367 1.7773 6.4453s-3.0156 3.8477-5.4648 3.8477c-2.4531 0-4.6406-1.5391-5.4688-3.8477-0.82812-2.3086-0.11719-4.8867 1.7773-6.4453v-0.71875h-28.992c-0.61328 0-1.1094-0.49609-1.1094-1.1094v-2.3789c0-0.40625 0.22266-0.77734 0.57812-0.97266 1.2891-0.90234 1.8398-2.5352 1.3555-4.0312-0.48047-1.4961-1.8789-2.5039-3.4492-2.4805-1.5742 0.019531-2.9453 1.0625-3.3906 2.5703-0.44141 1.5039 0.15234 3.125 1.4609 3.9922 0.3125 0.20312 0.5 0.55078 0.5 0.92187h0.003907v2.3789c0 0.61328-0.49609 1.1094-1.1094 1.1094h-12.277c-2.1445-0.003906-3.8789-1.7383-3.8828-3.8828v-11.168h-0.71875c-1.5586 1.8945-4.1367 2.6055-6.4453 1.7773s-3.8477-3.0156-3.8477-5.4648c0-2.4531 1.5391-4.6406 3.8477-5.4688 2.3086-0.82812 4.8867-0.11719 6.4453 1.7773h0.71875v-29.113c0-0.61328 0.49609-1.1094 1.1094-1.1094h2.3789c0.40625 0 0.77734 0.21875 0.97266 0.57422 0.90234 1.2891 2.5352 1.8398 4.0312 1.3594 1.4961-0.48047 2.5039-1.8828 2.4805-3.4531-0.019531-1.5703-1.0625-2.9453-2.5703-3.3867-1.5039-0.44531-3.125 0.14844-3.9922 1.4609-0.20312 0.30859-0.55078 0.49609-0.92187 0.49609h-2.3789c-0.61328 0-1.1133-0.49609-1.1133-1.1094v-12.148c0.007812-2.1445 1.7422-3.8789 3.8867-3.8828h11.168v-0.71875c-1.8945-1.5586-2.6055-4.1367-1.7773-6.4453s3.0156-3.8477 5.4648-3.8477c2.4531 0 4.6406 1.5391 5.4688 3.8477 0.82812 2.3086 0.11719 4.8867-1.7773 6.4453v0.71875h28.992c0.61328 0 1.1094 0.49609 1.1094 1.1094v2.3789c0 0.40625-0.22266 0.78125-0.57812 0.97266-1.293 0.90234-1.8438 2.5391-1.3633 4.0391s1.8828 2.5078 3.457 2.4883c1.5781-0.019532 2.9531-1.0664 3.3984-2.5742 0.44141-1.5117-0.15234-3.1367-1.4688-4.0039-0.3125-0.20312-0.5-0.55078-0.5-0.92187v-2.3789c0-0.61328 0.49609-1.1094 1.1055-1.1094h12.277c2.1445 0.003906 3.8789 1.7383 3.8828 3.8828v11.043h0.71875c1.5586-1.8945 4.1367-2.6055 6.4453-1.7773s3.8477 3.0156 3.8477 5.4688-1.5391 4.6406-3.8477 5.4688c-2.3086 0.82422-4.8867 0.11719-6.4453-1.7773zm-35.578 6.832-3.7227 13.895v-0.003906c-0.15625 0.59375 0.19531 1.2031 0.78516 1.3594 0.58984 0.15625 1.1992-0.19141 1.3555-0.78516l3.7227-13.895h0.003906c0.15625-0.58984-0.19531-1.1992-0.78516-1.3555-0.59375-0.16016-1.1992 0.19141-1.3594 0.78125zm-7.2617 0.60547-7.9844 5.7266c-0.29297 0.21094-0.46484 0.55078-0.46094 0.91016 0.003906 0.35938 0.18359 0.69531 0.48047 0.89844l7.9609 5.7227c0.49609 0.33984 1.1719 0.21875 1.5234-0.26953 0.35156-0.48828 0.24609-1.1641-0.23047-1.5273l-6.7383-4.832 6.7383-4.832v0.003906c0.47656-0.36328 0.58203-1.043 0.23047-1.5312-0.35156-0.48438-1.0273-0.60547-1.5234-0.26562zm11.652 1.7969 6.7383 4.832-6.7383 4.832v-0.003907c-0.49609 0.35547-0.61328 1.0469-0.25391 1.543 0.35547 0.49609 1.0469 0.61328 1.543 0.25781l7.9648-5.7148c0.10156-0.074219 0.19531-0.16406 0.26953-0.26562 0.17188-0.23828 0.24219-0.53516 0.19531-0.82422s-0.20703-0.55078-0.44531-0.72266l-7.9844-5.7266c-0.49609-0.33984-1.1719-0.21875-1.5234 0.26562-0.35156 0.48828-0.24609 1.168 0.23047 1.5312zm-4.0742-16.324c5.2266 0.27344 10.168 2.4766 13.867 6.1758 3.6992 3.6992 5.9023 8.6406 6.1758 13.867h13v-14.062c0-0.29688 0.11719-0.57812 0.32422-0.78516 0.21094-0.21094 0.49219-0.32812 0.78516-0.32422h2.3789v0.003906c0.375 0 0.72266 0.1875 0.92578 0.49609 0.86719 1.3125 2.4883 1.9023 3.9961 1.4609 1.5039-0.44531 2.5469-1.8164 2.5664-3.3906 0.019532-1.5703-0.98828-2.9688-2.4805-3.4492-1.4961-0.48047-3.1328 0.070312-4.0312 1.3555-0.19531 0.35938-0.57031 0.58203-0.97656 0.58203h-2.3789c-0.61328-0.003906-1.1094-0.5-1.1094-1.1133v-12.152c-0.003906-0.91797-0.74609-1.6602-1.6641-1.6641h-11.168v0.71875-0.003906c1.8945 1.5586 2.6055 4.1406 1.7773 6.4453-0.82812 2.3086-3.0156 3.8516-5.4648 3.8516-2.4531 0-4.6406-1.543-5.4688-3.8516-0.82812-2.3047-0.11719-4.8867 1.7773-6.4453v-0.71875l-12.832 0.003906zm20.043 22.262c-0.27344 5.2266-2.4766 10.168-6.1758 13.867-3.6992 3.6992-8.6406 5.9023-13.867 6.1758v13h13.941c0.61328 0 1.1094 0.5 1.1094 1.1094v2.3789c0 0.375-0.1875 0.72266-0.5 0.92578-1.3125 0.86719-1.9062 2.4922-1.4648 4 0.44141 1.5117 1.8203 2.5586 3.3945 2.5781 1.5742 0.019531 2.9805-0.99219 3.4609-2.4922 0.48047-1.4961-0.074219-3.1367-1.3672-4.0352-0.35547-0.19531-0.57812-0.57031-0.57812-0.97656v-2.3789c0-0.60938 0.49219-1.1055 1.1055-1.1094h12.277c0.91797-0.003906 1.6602-0.74609 1.6641-1.6641v-11.168h-0.71875 0.003906c-1.5586 1.8945-4.1406 2.6055-6.4453 1.7773-2.3086-0.82812-3.8516-3.0156-3.8516-5.4648 0-2.4531 1.543-4.6406 3.8516-5.4688 2.3047-0.82812 4.8867-0.11719 6.4453 1.7773h0.71875l-0.003906-12.832zm-22.262 20.043c-5.2266-0.27344-10.168-2.4766-13.867-6.1758-3.6992-3.6992-5.9023-8.6406-6.1758-13.867h-13v13.941c0 0.61328-0.5 1.1094-1.1094 1.1094h-2.3789c-0.375 0-0.72266-0.1875-0.92578-0.5-0.32812-0.49609-0.77344-0.90234-1.3008-1.1836-1.1094-0.59766-2.4531-0.56641-3.5352 0.082032-1.082 0.64453-1.7422 1.8125-1.7422 3.0742 0 1.2617 0.66016 2.4297 1.7422 3.0781 1.082 0.64453 2.4258 0.67578 3.5352 0.082031 0.5-0.26953 0.92578-0.64844 1.25-1.1094 0.19531-0.35547 0.57031-0.57812 0.97656-0.57812h2.3789c0.60938 0 1.1055 0.49219 1.1094 1.1055v12.277c0.003906 0.91797 0.74609 1.6602 1.6641 1.6641h11.168v-0.71484c-1.8945-1.5586-2.6055-4.1367-1.7773-6.4453 0.82812-2.3086 3.0156-3.8477 5.4648-3.8477 2.4531 0 4.6406 1.5391 5.4688 3.8477 0.82812 2.3086 0.11719 4.8867-1.7773 6.4453v0.71484h12.832zm-20.043-22.262c0.27344-5.2266 2.4766-10.168 6.1758-13.867 3.6992-3.6992 8.6406-5.9023 13.867-6.1758v-13h-13.941c-0.61328 0-1.1094-0.5-1.1094-1.1094v-2.3789c0-0.37109 0.1875-0.71875 0.5-0.92578 1.0547-0.69141 1.668-1.8906 1.6133-3.1523s-0.76953-2.4023-1.8828-3.0039c-1.1094-0.60156-2.457-0.57031-3.543 0.078125-1.082 0.64844-1.7461 1.8164-1.7461 3.082-0.003906 0.59375 0.14062 1.1758 0.41797 1.6992 0.26953 0.49609 0.65234 0.92578 1.1172 1.2461 0.35547 0.19531 0.57812 0.57031 0.57812 0.97656v2.3789c0 0.60938-0.49609 1.1055-1.1055 1.1094h-12.277c-0.91797 0.003906-1.6602 0.74609-1.6641 1.6641v11.043h0.71875-0.003906c1.5586-1.8945 4.1406-2.6055 6.4453-1.7773 2.3086 0.82812 3.8516 3.0156 3.8516 5.4688s-1.543 4.6406-3.8516 5.4688c-2.3047 0.82422-4.8867 0.11719-6.4453-1.7773h-0.71875l0.003906 12.953zm34.559-12.297c-4.168-4.168-10.035-6.1602-15.879-5.3906s-11 4.2109-13.945 9.3164c-2.9453 5.1055-3.3516 11.289-1.0977 16.734 2.2578 5.4453 6.918 9.5312 12.609 11.059 5.6953 1.5234 11.773 0.31641 16.449-3.2734 4.6758-3.5859 7.418-9.1445 7.418-15.039 0.003906-5.0312-1.9922-9.8555-5.5547-13.406z" fill-rule="evenodd"/>
<script xmlns=""/></svg>